<svg width="1920" height="2549" viewBox="0 0 1920 2549" fill="none" xmlns="http://www.w3.org/2000/svg">
<path d="M-79 2548C-77.8657 2494.5 -73.638 2441.53 -53.9446 2393.75C-0.450956 2263.96 71.1129 2136.18 154.769 2037.12C205.191 1977.41 268.937 1939.02 323.832 1887.01C388.149 1826.07 452.516 1758.33 500.436 1674.76C544.727 1597.51 581.424 1515.65 614.766 1429.68C650.231 1338.22 682.307 1238.81 732.502 1159.1C823.291 1014.92 960.81 992.187 1075.98 895.85C1124.26 855.461 1163.12 789.207 1199.07 731.718C1258.92 635.994 1312.69 537.234 1379.08 448.711C1437.8 370.395 1498.26 304.229 1569.79 246.335C1627.62 199.529 1688.31 171.169 1750.29 137.339C1888.58 61.8421 1882.61 -188.007 2013 -279.523C2067.68 -317.898 2144.83 -317.96 2205.17 -321.592C2303.63 -327.517 2401.76 -338.839 2500 -349" stroke="black" stroke-opacity="0.45" stroke-linecap="round"/>
</svg>
