<svg width="1920" height="2549" fill="none" xmlns="http://www.w3.org/2000/svg"><path d="M-79 2548c1.134-53.5 5.362-106.47 25.055-154.25C-.45 2263.96 71.113 2136.18 154.77 2037.12c50.422-59.71 114.168-98.1 169.063-150.11 64.317-60.94 128.684-128.68 176.604-212.25 44.291-77.25 80.988-159.11 114.33-245.08 35.465-91.46 67.541-190.87 117.736-270.58 90.789-144.18 228.308-166.913 343.478-263.25 48.28-40.389 87.14-106.643 123.09-164.132 59.85-95.724 113.62-194.484 180.01-283.007 58.72-78.316 119.18-144.482 190.71-202.376 57.83-46.806 118.52-75.166 180.5-108.996 138.29-75.497 132.32-325.346 262.71-416.862 54.68-38.375 131.83-38.437 192.17-42.069 98.46-5.925 196.59-17.247 294.83-27.408" stroke="#000" stroke-opacity=".45" stroke-linecap="round"/></svg>