<svg width="1920" height="2460" viewBox="0 0 1920 2460" fill="none" xmlns="http://www.w3.org/2000/svg">
<path d="M-120 2459C-120 2342.57 -92.8319 2235.22 0.615962 2178.29C81.2377 2129.18 170.155 2102.04 250.263 2051.16C334.021 1997.96 379.712 1884.32 412.674 1781.98C488.401 1546.85 564.333 1316.29 705.238 1123.94C850.727 925.337 1043.2 793.612 1208.74 623.55C1308.78 520.773 1377.98 395.398 1445.2 260.8C1484.82 181.479 1528.22 105.15 1569.18 26.8763C1604.25 -40.1207 1630.74 -123.586 1679.7 -177.891C1754.75 -261.12 1851.62 -280.866 1941.13 -330.45C2038.57 -384.426 2142.28 -391.725 2248 -403" stroke="black" stroke-opacity="0.45" stroke-linecap="round"/>
</svg>
