<svg width="1920" height="2395" viewBox="0 0 1920 2395" fill="none" xmlns="http://www.w3.org/2000/svg">
<path d="M-71 2394C-69.8795 2385.41 -64.1331 2378.21 -58.7019 2370.76C-19.615 2317.1 27.6285 2268.19 77.3975 2219.99C236.665 2065.71 405.457 1916.74 577.522 1770.81C753.884 1621.24 943.228 1480.66 1114.54 1327.61C1225.85 1228.16 1305.22 1135.53 1355.17 1010.05C1390.62 920.992 1416.19 830.821 1437.57 739.286C1470.22 599.525 1537.78 472.475 1592.53 337.858C1614.22 284.514 1634.41 230.06 1648.28 175.151C1656.4 143.02 1663.41 114.52 1636.8 86.5726C1605.39 53.5769 1572.92 30.556 1561.37 -11.4287C1541.16 -84.9029 1552.37 -161.036 1587.2 -230.675C1659.17 -374.582 1760.46 -504.061 1966.39 -541.013C2077.11 -560.879 2191.84 -563 2305 -563" stroke="black" stroke-opacity="0.45" stroke-linecap="round"/>
</svg>
